<?xml version="1.0" encoding="us-ascii" standalone="no"?><svg xmlns="http://www.w3.org/2000/svg" xmlns:xlink="http://www.w3.org/1999/xlink" contentStyleType="text/css" height="841px" preserveAspectRatio="none" style="width:1901px;height:841px;background:#FFFFFF;" version="1.1" viewBox="0 0 1901 841" width="1901px" zoomAndPan="magnify"><defs/><g><!--cluster proyecto--><g id="cluster_proyecto"><path d="M8.5,330 L80.5,330 A3.75,3.75 0 0 1 83,332.5 L90,352.2969 L1891.5,352.2969 A2.5,2.5 0 0 1 1894,354.7969 L1894,641.5 A2.5,2.5 0 0 1 1891.5,644 L8.5,644 A2.5,2.5 0 0 1 6,641.5 L6,332.5 A2.5,2.5 0 0 1 8.5,330 " fill="none" style="stroke:#000000;stroke-width:1.5;"/><line style="stroke:#000000;stroke-width:1.5;" x1="6" x2="90" y1="352.2969" y2="352.2969"/><text fill="#000000" font-family="sans-serif" font-size="14" font-weight="bold" lengthAdjust="spacing" textLength="71" x="10" y="344.9951">proyecto</text></g><!--cluster main.dart--><g id="cluster_main.dart"><path d="M1718.5,448.5 L1793.5,448.5 A3.75,3.75 0 0 1 1796,451 L1803,470.7969 L1867.5,470.7969 A2.5,2.5 0 0 1 1870,473.2969 L1870,561 A2.5,2.5 0 0 1 1867.5,563.5 L1718.5,563.5 A2.5,2.5 0 0 1 1716,561 L1716,451 A2.5,2.5 0 0 1 1718.5,448.5 " fill="none" style="stroke:#000000;stroke-width:1.5;"/><line style="stroke:#000000;stroke-width:1.5;" x1="1716" x2="1803" y1="470.7969" y2="470.7969"/><text fill="#000000" font-family="sans-serif" font-size="14" font-weight="bold" lengthAdjust="spacing" textLength="74" x="1720" y="463.4951">main.dart</text></g><!--cluster screens--><g id="cluster_screens"><path d="M1376.5,405.5 L1441.5,405.5 A3.75,3.75 0 0 1 1444,408 L1451,427.7969 L1689.5,427.7969 A2.5,2.5 0 0 1 1692,430.2969 L1692,585 A2.5,2.5 0 0 1 1689.5,587.5 L1376.5,587.5 A2.5,2.5 0 0 1 1374,585 L1374,408 A2.5,2.5 0 0 1 1376.5,405.5 " fill="none" style="stroke:#000000;stroke-width:1.5;"/><line style="stroke:#000000;stroke-width:1.5;" x1="1374" x2="1451" y1="427.7969" y2="427.7969"/><text fill="#000000" font-family="sans-serif" font-size="14" font-weight="bold" lengthAdjust="spacing" textLength="64" x="1378" y="420.4951">screens</text></g><!--cluster register.dart--><g id="cluster_register.dart"><path d="M1400.5,448.5 L1501.5,448.5 A3.75,3.75 0 0 1 1504,451 L1511,470.7969 L1665.5,470.7969 A2.5,2.5 0 0 1 1668,473.2969 L1668,561 A2.5,2.5 0 0 1 1665.5,563.5 L1400.5,563.5 A2.5,2.5 0 0 1 1398,561 L1398,451 A2.5,2.5 0 0 1 1400.5,448.5 " fill="none" style="stroke:#000000;stroke-width:1.5;"/><line style="stroke:#000000;stroke-width:1.5;" x1="1398" x2="1511" y1="470.7969" y2="470.7969"/><text fill="#000000" font-family="sans-serif" font-size="14" font-weight="bold" lengthAdjust="spacing" textLength="100" x="1402" y="463.4951">register.dart</text></g><!--cluster widgets--><g id="cluster_widgets"><path d="M32.5,373 L96.5,373 A3.75,3.75 0 0 1 99,375.5 L106,395.2969 L1347.5,395.2969 A2.5,2.5 0 0 1 1350,397.7969 L1350,617.5 A2.5,2.5 0 0 1 1347.5,620 L32.5,620 A2.5,2.5 0 0 1 30,617.5 L30,375.5 A2.5,2.5 0 0 1 32.5,373 " fill="none" style="stroke:#000000;stroke-width:1.5;"/><line style="stroke:#000000;stroke-width:1.5;" x1="30" x2="106" y1="395.2969" y2="395.2969"/><text fill="#000000" font-family="sans-serif" font-size="14" font-weight="bold" lengthAdjust="spacing" textLength="63" x="34" y="387.9951">widgets</text></g><!--cluster widget_top_home.dart--><g id="cluster_widget_top_home.dart"><path d="M1137.5,432 L1313.5,432 A3.75,3.75 0 0 1 1316,434.5 L1323,454.2969 L1323.5,454.2969 A2.5,2.5 0 0 1 1326,456.7969 L1326,577.5 A2.5,2.5 0 0 1 1323.5,580 L1137.5,580 A2.5,2.5 0 0 1 1135,577.5 L1135,434.5 A2.5,2.5 0 0 1 1137.5,432 " fill="none" style="stroke:#000000;stroke-width:1.5;"/><line style="stroke:#000000;stroke-width:1.5;" x1="1135" x2="1323" y1="454.2969" y2="454.2969"/><text fill="#000000" font-family="sans-serif" font-size="14" font-weight="bold" lengthAdjust="spacing" textLength="175" x="1139" y="446.9951">widget_top_home.dart</text></g><!--cluster widget_top_login.dart--><g id="cluster_widget_top_login.dart"><path d="M928.5,432 L1098.5,432 A3.75,3.75 0 0 1 1101,434.5 L1108,454.2969 L1108.5,454.2969 A2.5,2.5 0 0 1 1111,456.7969 L1111,577.5 A2.5,2.5 0 0 1 1108.5,580 L928.5,580 A2.5,2.5 0 0 1 926,577.5 L926,434.5 A2.5,2.5 0 0 1 928.5,432 " fill="none" style="stroke:#000000;stroke-width:1.5;"/><line style="stroke:#000000;stroke-width:1.5;" x1="926" x2="1108" y1="454.2969" y2="454.2969"/><text fill="#000000" font-family="sans-serif" font-size="14" font-weight="bold" lengthAdjust="spacing" textLength="169" x="930" y="446.9951">widget_top_login.dart</text></g><!--cluster widget_top_initial.dart--><g id="cluster_widget_top_initial.dart"><path d="M414.5,432 L587.5,432 A3.75,3.75 0 0 1 590,434.5 L597,454.2969 L899.5,454.2969 A2.5,2.5 0 0 1 902,456.7969 L902,577.5 A2.5,2.5 0 0 1 899.5,580 L414.5,580 A2.5,2.5 0 0 1 412,577.5 L412,434.5 A2.5,2.5 0 0 1 414.5,432 " fill="none" style="stroke:#000000;stroke-width:1.5;"/><line style="stroke:#000000;stroke-width:1.5;" x1="412" x2="597" y1="454.2969" y2="454.2969"/><text fill="#000000" font-family="sans-serif" font-size="14" font-weight="bold" lengthAdjust="spacing" textLength="172" x="416" y="446.9951">widget_top_initial.dart</text></g><!--cluster widget_top_homeStudent.dart--><g id="cluster_widget_top_homeStudent.dart"><path d="M56.5,416 L294.5,416 A3.75,3.75 0 0 1 297,418.5 L304,438.2969 L385.5,438.2969 A2.5,2.5 0 0 1 388,440.7969 L388,593.5 A2.5,2.5 0 0 1 385.5,596 L56.5,596 A2.5,2.5 0 0 1 54,593.5 L54,418.5 A2.5,2.5 0 0 1 56.5,416 " fill="none" style="stroke:#000000;stroke-width:1.5;"/><line style="stroke:#000000;stroke-width:1.5;" x1="54" x2="304" y1="438.2969" y2="438.2969"/><text fill="#000000" font-family="sans-serif" font-size="14" font-weight="bold" lengthAdjust="spacing" textLength="237" x="58" y="430.9951">widget_top_homeStudent.dart</text></g><!--cluster flutter--><g id="cluster_flutter"><path d="M387.5,6 L437.5,6 A3.75,3.75 0 0 1 440,8.5 L447,28.2969 L1202.5,28.2969 A2.5,2.5 0 0 1 1205,30.7969 L1205,303.5 A2.5,2.5 0 0 1 1202.5,306 L387.5,306 A2.5,2.5 0 0 1 385,303.5 L385,8.5 A2.5,2.5 0 0 1 387.5,6 " fill="none" style="stroke:#000000;stroke-width:1.5;"/><line style="stroke:#000000;stroke-width:1.5;" x1="385" x2="447" y1="28.2969" y2="28.2969"/><text fill="#000000" font-family="sans-serif" font-size="14" font-weight="bold" lengthAdjust="spacing" textLength="49" x="389" y="20.9951">flutter</text></g><!--cluster src--><g id="cluster_src"><path d="M411.5,49 L437.5,49 A3.75,3.75 0 0 1 440,51.5 L447,71.2969 L1178.5,71.2969 A2.5,2.5 0 0 1 1181,73.7969 L1181,279.5 A2.5,2.5 0 0 1 1178.5,282 L411.5,282 A2.5,2.5 0 0 1 409,279.5 L409,51.5 A2.5,2.5 0 0 1 411.5,49 " fill="none" style="stroke:#000000;stroke-width:1.5;"/><line style="stroke:#000000;stroke-width:1.5;" x1="409" x2="447" y1="71.2969" y2="71.2969"/><text fill="#000000" font-family="sans-serif" font-size="14" font-weight="bold" lengthAdjust="spacing" textLength="25" x="413" y="63.9951">src</text></g><!--cluster widgets--><g id="cluster_widgets"><path d="M435.5,92 L499.5,92 A3.75,3.75 0 0 1 502,94.5 L509,114.2969 L1154.5,114.2969 A2.5,2.5 0 0 1 1157,116.7969 L1157,255.5 A2.5,2.5 0 0 1 1154.5,258 L435.5,258 A2.5,2.5 0 0 1 433,255.5 L433,94.5 A2.5,2.5 0 0 1 435.5,92 " fill="none" style="stroke:#000000;stroke-width:1.5;"/><line style="stroke:#000000;stroke-width:1.5;" x1="433" x2="509" y1="114.2969" y2="114.2969"/><text fill="#000000" font-family="sans-serif" font-size="14" font-weight="bold" lengthAdjust="spacing" textLength="63" x="437" y="106.9951">widgets</text></g><!--cluster framework.dart--><g id="cluster_framework.dart"><path d="M689.5,135 L813.5,135 A3.75,3.75 0 0 1 816,137.5 L823,157.2969 L1130.5,157.2969 A2.5,2.5 0 0 1 1133,159.7969 L1133,231.5 A2.5,2.5 0 0 1 1130.5,234 L689.5,234 A2.5,2.5 0 0 1 687,231.5 L687,137.5 A2.5,2.5 0 0 1 689.5,135 " fill="none" style="stroke:#000000;stroke-width:1.5;"/><line style="stroke:#000000;stroke-width:1.5;" x1="687" x2="823" y1="157.2969" y2="157.2969"/><text fill="#000000" font-family="sans-serif" font-size="14" font-weight="bold" lengthAdjust="spacing" textLength="123" x="691" y="149.9951">framework.dart</text></g><!--cluster preferred_size.dart--><g id="cluster_preferred_size.dart"><path d="M459.5,135 L613.5,135 A3.75,3.75 0 0 1 616,137.5 L623,157.2969 L660.5,157.2969 A2.5,2.5 0 0 1 663,159.7969 L663,231.5 A2.5,2.5 0 0 1 660.5,234 L459.5,234 A2.5,2.5 0 0 1 457,231.5 L457,137.5 A2.5,2.5 0 0 1 459.5,135 " fill="none" style="stroke:#000000;stroke-width:1.5;"/><line style="stroke:#000000;stroke-width:1.5;" x1="457" x2="623" y1="157.2969" y2="157.2969"/><text fill="#000000" font-family="sans-serif" font-size="14" font-weight="bold" lengthAdjust="spacing" textLength="153" x="461" y="149.9951">preferred_size.dart</text></g><!--cluster dart--><g id="cluster_dart"><path d="M720.5,668 L753.5,668 A3.75,3.75 0 0 1 756,670.5 L763,690.2969 L857.5,690.2969 A2.5,2.5 0 0 1 860,692.7969 L860,831.5 A2.5,2.5 0 0 1 857.5,834 L720.5,834 A2.5,2.5 0 0 1 718,831.5 L718,670.5 A2.5,2.5 0 0 1 720.5,668 " fill="none" style="stroke:#000000;stroke-width:1.5;"/><line style="stroke:#000000;stroke-width:1.5;" x1="718" x2="763" y1="690.2969" y2="690.2969"/><text fill="#000000" font-family="sans-serif" font-size="14" font-weight="bold" lengthAdjust="spacing" textLength="32" x="722" y="682.9951">dart</text></g><!--cluster ui--><g id="cluster_ui"><path d="M744.5,711 L759.5,711 A3.75,3.75 0 0 1 762,713.5 L769,733.2969 L833.5,733.2969 A2.5,2.5 0 0 1 836,735.7969 L836,807.5 A2.5,2.5 0 0 1 833.5,810 L744.5,810 A2.5,2.5 0 0 1 742,807.5 L742,713.5 A2.5,2.5 0 0 1 744.5,711 " fill="none" style="stroke:#000000;stroke-width:1.5;"/><line style="stroke:#000000;stroke-width:1.5;" x1="742" x2="769" y1="733.2969" y2="733.2969"/><text fill="#000000" font-family="sans-serif" font-size="14" font-weight="bold" lengthAdjust="spacing" textLength="14" x="746" y="725.9951">ui</text></g><!--class MyApp--><g id="elem_MyApp"><rect codeLine="3" fill="#F1F1F1" height="64.2969" id="MyApp" rx="2.5" ry="2.5" style="stroke:#181818;stroke-width:0.5;" width="121" x="1732.5" y="483.5"/><ellipse cx="1766.85" cy="499.5" fill="#ADD1B2" rx="11" ry="11" style="stroke:#181818;stroke-width:1.0;"/><path d="M1769.8188,505.1406 Q1769.2406,505.4375 1768.6,505.5781 Q1767.9594,505.7344 1767.2563,505.7344 Q1764.7563,505.7344 1763.4281,504.0938 Q1762.1156,502.4375 1762.1156,499.3125 Q1762.1156,496.1875 1763.4281,494.5313 Q1764.7563,492.875 1767.2563,492.875 Q1767.9594,492.875 1768.6,493.0313 Q1769.2563,493.1875 1769.8188,493.4844 L1769.8188,496.2031 Q1769.1938,495.625 1768.6,495.3594 Q1768.0063,495.0781 1767.3813,495.0781 Q1766.0375,495.0781 1765.35,496.1563 Q1764.6625,497.2188 1764.6625,499.3125 Q1764.6625,501.4063 1765.35,502.4844 Q1766.0375,503.5469 1767.3813,503.5469 Q1768.0063,503.5469 1768.6,503.2813 Q1769.1938,503 1769.8188,502.4219 L1769.8188,505.1406 Z " fill="#000000"/><text fill="#000000" font-family="sans-serif" font-size="14" lengthAdjust="spacing" textLength="46" x="1785.15" y="504.3467">MyApp</text><line style="stroke:#181818;stroke-width:0.5;" x1="1733.5" x2="1852.5" y1="515.5" y2="515.5"/><line style="stroke:#181818;stroke-width:0.5;" x1="1733.5" x2="1852.5" y1="523.5" y2="523.5"/><ellipse cx="1743.5" cy="537.1484" fill="#84BE84" rx="3" ry="3" style="stroke:#038048;stroke-width:1.0;"/><text fill="#000000" font-family="sans-serif" font-size="14" lengthAdjust="spacing" textLength="95" x="1752.5" y="540.4951">Widget build()</text></g><!--class Register--><g id="elem_Register"><rect codeLine="9" fill="#F1F1F1" height="64.2969" id="Register" rx="2.5" ry="2.5" style="stroke:#181818;stroke-width:0.5;" width="238" x="1414" y="483.5"/><ellipse cx="1499.75" cy="499.5" fill="#ADD1B2" rx="11" ry="11" style="stroke:#181818;stroke-width:1.0;"/><path d="M1502.7188,505.1406 Q1502.1406,505.4375 1501.5,505.5781 Q1500.8594,505.7344 1500.1563,505.7344 Q1497.6563,505.7344 1496.3281,504.0938 Q1495.0156,502.4375 1495.0156,499.3125 Q1495.0156,496.1875 1496.3281,494.5313 Q1497.6563,492.875 1500.1563,492.875 Q1500.8594,492.875 1501.5,493.0313 Q1502.1563,493.1875 1502.7188,493.4844 L1502.7188,496.2031 Q1502.0938,495.625 1501.5,495.3594 Q1500.9063,495.0781 1500.2813,495.0781 Q1498.9375,495.0781 1498.25,496.1563 Q1497.5625,497.2188 1497.5625,499.3125 Q1497.5625,501.4063 1498.25,502.4844 Q1498.9375,503.5469 1500.2813,503.5469 Q1500.9063,503.5469 1501.5,503.2813 Q1502.0938,503 1502.7188,502.4219 L1502.7188,505.1406 Z " fill="#000000"/><text fill="#000000" font-family="sans-serif" font-size="14" lengthAdjust="spacing" textLength="58" x="1520.25" y="504.3467">Register</text><line style="stroke:#181818;stroke-width:0.5;" x1="1415" x2="1651" y1="515.5" y2="515.5"/><line style="stroke:#181818;stroke-width:0.5;" x1="1415" x2="1651" y1="523.5" y2="523.5"/><ellipse cx="1425" cy="537.1484" fill="#84BE84" rx="3" ry="3" style="stroke:#038048;stroke-width:1.0;"/><text fill="#000000" font-family="sans-serif" font-size="14" lengthAdjust="spacing" textLength="212" x="1434" y="540.4951">State&lt;Register&gt; createState()</text></g><!--class TopBarHome--><g id="elem_TopBarHome"><rect codeLine="15" fill="#F1F1F1" height="96.8906" id="TopBarHome" rx="2.5" ry="2.5" style="stroke:#181818;stroke-width:0.5;" width="152" x="1151" y="467"/><ellipse cx="1179.05" cy="483" fill="#ADD1B2" rx="11" ry="11" style="stroke:#181818;stroke-width:1.0;"/><path d="M1182.0188,488.6406 Q1181.4406,488.9375 1180.8,489.0781 Q1180.1594,489.2344 1179.4563,489.2344 Q1176.9563,489.2344 1175.6281,487.5938 Q1174.3156,485.9375 1174.3156,482.8125 Q1174.3156,479.6875 1175.6281,478.0313 Q1176.9563,476.375 1179.4563,476.375 Q1180.1594,476.375 1180.8,476.5313 Q1181.4563,476.6875 1182.0188,476.9844 L1182.0188,479.7031 Q1181.3938,479.125 1180.8,478.8594 Q1180.2063,478.5781 1179.5813,478.5781 Q1178.2375,478.5781 1177.55,479.6563 Q1176.8625,480.7188 1176.8625,482.8125 Q1176.8625,484.9063 1177.55,485.9844 Q1178.2375,487.0469 1179.5813,487.0469 Q1180.2063,487.0469 1180.8,486.7813 Q1181.3938,486.5 1182.0188,485.9219 L1182.0188,488.6406 Z " fill="#000000"/><text fill="#000000" font-family="sans-serif" font-size="14" lengthAdjust="spacing" textLength="91" x="1195.95" y="487.8467">TopBarHome</text><line style="stroke:#181818;stroke-width:0.5;" x1="1152" x2="1302" y1="499" y2="499"/><ellipse cx="1162" cy="512.6484" fill="none" rx="3" ry="3" style="stroke:#038048;stroke-width:1.0;"/><text fill="#000000" font-family="sans-serif" font-size="14" lengthAdjust="spacing" textLength="126" x="1171" y="515.9951">Size preferredSize</text><ellipse cx="1162" cy="528.9453" fill="none" rx="3" ry="3" style="stroke:#038048;stroke-width:1.0;"/><text fill="#000000" font-family="sans-serif" font-size="14" lengthAdjust="spacing" textLength="72" x="1171" y="532.292">bool arrow</text><line style="stroke:#181818;stroke-width:0.5;" x1="1152" x2="1302" y1="539.5938" y2="539.5938"/><ellipse cx="1162" cy="553.2422" fill="#84BE84" rx="3" ry="3" style="stroke:#038048;stroke-width:1.0;"/><text fill="#000000" font-family="sans-serif" font-size="14" lengthAdjust="spacing" textLength="95" x="1171" y="556.5889">Widget build()</text></g><!--class TopBarLogin--><g id="elem_TopBarLogin"><rect codeLine="25" fill="#F1F1F1" height="96.8906" id="TopBarLogin" rx="2.5" ry="2.5" style="stroke:#181818;stroke-width:0.5;" width="152" x="942" y="467"/><ellipse cx="971.85" cy="483" fill="#ADD1B2" rx="11" ry="11" style="stroke:#181818;stroke-width:1.0;"/><path d="M974.8188,488.6406 Q974.2406,488.9375 973.6,489.0781 Q972.9594,489.2344 972.2563,489.2344 Q969.7563,489.2344 968.4281,487.5938 Q967.1156,485.9375 967.1156,482.8125 Q967.1156,479.6875 968.4281,478.0313 Q969.7563,476.375 972.2563,476.375 Q972.9594,476.375 973.6,476.5313 Q974.2563,476.6875 974.8188,476.9844 L974.8188,479.7031 Q974.1938,479.125 973.6,478.8594 Q973.0063,478.5781 972.3813,478.5781 Q971.0375,478.5781 970.35,479.6563 Q969.6625,480.7188 969.6625,482.8125 Q969.6625,484.9063 970.35,485.9844 Q971.0375,487.0469 972.3813,487.0469 Q973.0063,487.0469 973.6,486.7813 Q974.1938,486.5 974.8188,485.9219 L974.8188,488.6406 Z " fill="#000000"/><text fill="#000000" font-family="sans-serif" font-size="14" lengthAdjust="spacing" textLength="87" x="989.15" y="487.8467">TopBarLogin</text><line style="stroke:#181818;stroke-width:0.5;" x1="943" x2="1093" y1="499" y2="499"/><ellipse cx="953" cy="512.6484" fill="none" rx="3" ry="3" style="stroke:#038048;stroke-width:1.0;"/><text fill="#000000" font-family="sans-serif" font-size="14" lengthAdjust="spacing" textLength="126" x="962" y="515.9951">Size preferredSize</text><ellipse cx="953" cy="528.9453" fill="none" rx="3" ry="3" style="stroke:#038048;stroke-width:1.0;"/><text fill="#000000" font-family="sans-serif" font-size="14" lengthAdjust="spacing" textLength="72" x="962" y="532.292">bool arrow</text><line style="stroke:#181818;stroke-width:0.5;" x1="943" x2="1093" y1="539.5938" y2="539.5938"/><ellipse cx="953" cy="553.2422" fill="#84BE84" rx="3" ry="3" style="stroke:#038048;stroke-width:1.0;"/><text fill="#000000" font-family="sans-serif" font-size="14" lengthAdjust="spacing" textLength="95" x="962" y="556.5889">Widget build()</text></g><!--class TopBarInitial--><g id="elem_TopBarInitial"><rect codeLine="35" fill="#F1F1F1" height="96.8906" id="TopBarInitial" rx="2.5" ry="2.5" style="stroke:#181818;stroke-width:0.5;" width="264" x="428" y="467"/><ellipse cx="513.75" cy="483" fill="#ADD1B2" rx="11" ry="11" style="stroke:#181818;stroke-width:1.0;"/><path d="M516.7188,488.6406 Q516.1406,488.9375 515.5,489.0781 Q514.8594,489.2344 514.1563,489.2344 Q511.6563,489.2344 510.3281,487.5938 Q509.0156,485.9375 509.0156,482.8125 Q509.0156,479.6875 510.3281,478.0313 Q511.6563,476.375 514.1563,476.375 Q514.8594,476.375 515.5,476.5313 Q516.1563,476.6875 516.7188,476.9844 L516.7188,479.7031 Q516.0938,479.125 515.5,478.8594 Q514.9063,478.5781 514.2813,478.5781 Q512.9375,478.5781 512.25,479.6563 Q511.5625,480.7188 511.5625,482.8125 Q511.5625,484.9063 512.25,485.9844 Q512.9375,487.0469 514.2813,487.0469 Q514.9063,487.0469 515.5,486.7813 Q516.0938,486.5 516.7188,485.9219 L516.7188,488.6406 Z " fill="#000000"/><text fill="#000000" font-family="sans-serif" font-size="14" lengthAdjust="spacing" textLength="84" x="534.25" y="487.8467">TopBarInitial</text><line style="stroke:#181818;stroke-width:0.5;" x1="429" x2="691" y1="499" y2="499"/><ellipse cx="439" cy="512.6484" fill="none" rx="3" ry="3" style="stroke:#038048;stroke-width:1.0;"/><text fill="#000000" font-family="sans-serif" font-size="14" lengthAdjust="spacing" textLength="126" x="448" y="515.9951">Size preferredSize</text><ellipse cx="439" cy="528.9453" fill="none" rx="3" ry="3" style="stroke:#038048;stroke-width:1.0;"/><text fill="#000000" font-family="sans-serif" font-size="14" lengthAdjust="spacing" textLength="72" x="448" y="532.292">bool arrow</text><line style="stroke:#181818;stroke-width:0.5;" x1="429" x2="691" y1="539.5938" y2="539.5938"/><ellipse cx="439" cy="553.2422" fill="#84BE84" rx="3" ry="3" style="stroke:#038048;stroke-width:1.0;"/><text fill="#000000" font-family="sans-serif" font-size="14" lengthAdjust="spacing" textLength="238" x="448" y="556.5889">State&lt;TopBarInitial&gt; createState()</text></g><!--class _TopBarInitialState--><g id="elem__TopBarInitialState"><rect codeLine="45" fill="#F1F1F1" height="64.2969" id="_TopBarInitialState" rx="2.5" ry="2.5" style="stroke:#181818;stroke-width:0.5;" width="159" x="727.5" y="483.5"/><ellipse cx="742.5" cy="499.5" fill="#ADD1B2" rx="11" ry="11" style="stroke:#181818;stroke-width:1.0;"/><path d="M745.4688,505.1406 Q744.8906,505.4375 744.25,505.5781 Q743.6094,505.7344 742.9063,505.7344 Q740.4063,505.7344 739.0781,504.0938 Q737.7656,502.4375 737.7656,499.3125 Q737.7656,496.1875 739.0781,494.5313 Q740.4063,492.875 742.9063,492.875 Q743.6094,492.875 744.25,493.0313 Q744.9063,493.1875 745.4688,493.4844 L745.4688,496.2031 Q744.8438,495.625 744.25,495.3594 Q743.6563,495.0781 743.0313,495.0781 Q741.6875,495.0781 741,496.1563 Q740.3125,497.2188 740.3125,499.3125 Q740.3125,501.4063 741,502.4844 Q741.6875,503.5469 743.0313,503.5469 Q743.6563,503.5469 744.25,503.2813 Q744.8438,503 745.4688,502.4219 L745.4688,505.1406 Z " fill="#000000"/><text fill="#000000" font-family="sans-serif" font-size="14" lengthAdjust="spacing" textLength="127" x="756.5" y="504.3467">_TopBarInitialState</text><line style="stroke:#181818;stroke-width:0.5;" x1="728.5" x2="885.5" y1="515.5" y2="515.5"/><line style="stroke:#181818;stroke-width:0.5;" x1="728.5" x2="885.5" y1="523.5" y2="523.5"/><ellipse cx="738.5" cy="537.1484" fill="#84BE84" rx="3" ry="3" style="stroke:#038048;stroke-width:1.0;"/><text fill="#000000" font-family="sans-serif" font-size="14" lengthAdjust="spacing" textLength="95" x="747.5" y="540.4951">Widget build()</text></g><!--class TopBarStudentHome--><g id="elem_TopBarStudentHome"><rect codeLine="51" fill="#F1F1F1" height="129.4844" id="TopBarStudentHome" rx="2.5" ry="2.5" style="stroke:#181818;stroke-width:0.5;" width="301" x="70.5" y="451"/><ellipse cx="143.75" cy="467" fill="#ADD1B2" rx="11" ry="11" style="stroke:#181818;stroke-width:1.0;"/><path d="M146.7188,472.6406 Q146.1406,472.9375 145.5,473.0781 Q144.8594,473.2344 144.1563,473.2344 Q141.6563,473.2344 140.3281,471.5938 Q139.0156,469.9375 139.0156,466.8125 Q139.0156,463.6875 140.3281,462.0313 Q141.6563,460.375 144.1563,460.375 Q144.8594,460.375 145.5,460.5313 Q146.1563,460.6875 146.7188,460.9844 L146.7188,463.7031 Q146.0938,463.125 145.5,462.8594 Q144.9063,462.5781 144.2813,462.5781 Q142.9375,462.5781 142.25,463.6563 Q141.5625,464.7188 141.5625,466.8125 Q141.5625,468.9063 142.25,469.9844 Q142.9375,471.0469 144.2813,471.0469 Q144.9063,471.0469 145.5,470.7813 Q146.0938,470.5 146.7188,469.9219 L146.7188,472.6406 Z " fill="#000000"/><text fill="#000000" font-family="sans-serif" font-size="14" lengthAdjust="spacing" textLength="146" x="164.25" y="471.8467">TopBarStudentHome</text><line style="stroke:#181818;stroke-width:0.5;" x1="71.5" x2="370.5" y1="483" y2="483"/><ellipse cx="81.5" cy="496.6484" fill="none" rx="3" ry="3" style="stroke:#038048;stroke-width:1.0;"/><text fill="#000000" font-family="sans-serif" font-size="14" lengthAdjust="spacing" textLength="126" x="90.5" y="499.9951">Size preferredSize</text><ellipse cx="81.5" cy="512.9453" fill="none" rx="3" ry="3" style="stroke:#038048;stroke-width:1.0;"/><text fill="#000000" font-family="sans-serif" font-size="14" lengthAdjust="spacing" textLength="72" x="90.5" y="516.292">bool arrow</text><ellipse cx="81.5" cy="529.2422" fill="none" rx="3" ry="3" style="stroke:#038048;stroke-width:1.0;"/><text fill="#000000" font-family="sans-serif" font-size="14" lengthAdjust="spacing" textLength="91" x="90.5" y="532.5889">int backIndex</text><line style="stroke:#181818;stroke-width:0.5;" x1="71.5" x2="370.5" y1="539.8906" y2="539.8906"/><ellipse cx="81.5" cy="553.5391" fill="#84BE84" rx="3" ry="3" style="stroke:#038048;stroke-width:1.0;"/><text fill="#000000" font-family="sans-serif" font-size="14" lengthAdjust="spacing" textLength="275" x="90.5" y="556.8857">Route&lt;dynamic&gt; customChangeView()</text><ellipse cx="81.5" cy="569.8359" fill="#84BE84" rx="3" ry="3" style="stroke:#038048;stroke-width:1.0;"/><text fill="#000000" font-family="sans-serif" font-size="14" lengthAdjust="spacing" textLength="95" x="90.5" y="573.1826">Widget build()</text></g><!--class StatelessWidget--><g id="elem_StatelessWidget"><rect fill="#F1F1F1" height="48" id="StatelessWidget" rx="2.5" ry="2.5" style="stroke:#181818;stroke-width:0.5;" width="144" x="973" y="170"/><ellipse cx="988" cy="186" fill="#ADD1B2" rx="11" ry="11" style="stroke:#181818;stroke-width:1.0;"/><path d="M990.9688,191.6406 Q990.3906,191.9375 989.75,192.0781 Q989.1094,192.2344 988.4063,192.2344 Q985.9063,192.2344 984.5781,190.5938 Q983.2656,188.9375 983.2656,185.8125 Q983.2656,182.6875 984.5781,181.0313 Q985.9063,179.375 988.4063,179.375 Q989.1094,179.375 989.75,179.5313 Q990.4063,179.6875 990.9688,179.9844 L990.9688,182.7031 Q990.3438,182.125 989.75,181.8594 Q989.1563,181.5781 988.5313,181.5781 Q987.1875,181.5781 986.5,182.6563 Q985.8125,183.7188 985.8125,185.8125 Q985.8125,187.9063 986.5,188.9844 Q987.1875,190.0469 988.5313,190.0469 Q989.1563,190.0469 989.75,189.7813 Q990.3438,189.5 990.9688,188.9219 L990.9688,191.6406 Z " fill="#000000"/><text fill="#000000" font-family="sans-serif" font-size="14" lengthAdjust="spacing" textLength="112" x="1002" y="190.8467">StatelessWidget</text><line style="stroke:#181818;stroke-width:0.5;" x1="974" x2="1116" y1="202" y2="202"/><line style="stroke:#181818;stroke-width:0.5;" x1="974" x2="1116" y1="210" y2="210"/></g><!--class StatefulWidget--><g id="elem_StatefulWidget"><rect fill="#F1F1F1" height="48" id="StatefulWidget" rx="2.5" ry="2.5" style="stroke:#181818;stroke-width:0.5;" width="132" x="703" y="170"/><ellipse cx="718" cy="186" fill="#ADD1B2" rx="11" ry="11" style="stroke:#181818;stroke-width:1.0;"/><path d="M720.9688,191.6406 Q720.3906,191.9375 719.75,192.0781 Q719.1094,192.2344 718.4063,192.2344 Q715.9063,192.2344 714.5781,190.5938 Q713.2656,188.9375 713.2656,185.8125 Q713.2656,182.6875 714.5781,181.0313 Q715.9063,179.375 718.4063,179.375 Q719.1094,179.375 719.75,179.5313 Q720.4063,179.6875 720.9688,179.9844 L720.9688,182.7031 Q720.3438,182.125 719.75,181.8594 Q719.1563,181.5781 718.5313,181.5781 Q717.1875,181.5781 716.5,182.6563 Q715.8125,183.7188 715.8125,185.8125 Q715.8125,187.9063 716.5,188.9844 Q717.1875,190.0469 718.5313,190.0469 Q719.1563,190.0469 719.75,189.7813 Q720.3438,189.5 720.9688,188.9219 L720.9688,191.6406 Z " fill="#000000"/><text fill="#000000" font-family="sans-serif" font-size="14" lengthAdjust="spacing" textLength="100" x="732" y="190.8467">StatefulWidget</text><line style="stroke:#181818;stroke-width:0.5;" x1="704" x2="834" y1="202" y2="202"/><line style="stroke:#181818;stroke-width:0.5;" x1="704" x2="834" y1="210" y2="210"/></g><!--class State--><g id="elem_State"><rect fill="#F1F1F1" height="48" id="State" rx="2.5" ry="2.5" style="stroke:#181818;stroke-width:0.5;" width="68" x="870" y="170"/><ellipse cx="885" cy="186" fill="#ADD1B2" rx="11" ry="11" style="stroke:#181818;stroke-width:1.0;"/><path d="M887.9688,191.6406 Q887.3906,191.9375 886.75,192.0781 Q886.1094,192.2344 885.4063,192.2344 Q882.9063,192.2344 881.5781,190.5938 Q880.2656,188.9375 880.2656,185.8125 Q880.2656,182.6875 881.5781,181.0313 Q882.9063,179.375 885.4063,179.375 Q886.1094,179.375 886.75,179.5313 Q887.4063,179.6875 887.9688,179.9844 L887.9688,182.7031 Q887.3438,182.125 886.75,181.8594 Q886.1563,181.5781 885.5313,181.5781 Q884.1875,181.5781 883.5,182.6563 Q882.8125,183.7188 882.8125,185.8125 Q882.8125,187.9063 883.5,188.9844 Q884.1875,190.0469 885.5313,190.0469 Q886.1563,190.0469 886.75,189.7813 Q887.3438,189.5 887.9688,188.9219 L887.9688,191.6406 Z " fill="#000000"/><text fill="#000000" font-family="sans-serif" font-size="14" lengthAdjust="spacing" textLength="36" x="899" y="190.8467">State</text><line style="stroke:#181818;stroke-width:0.5;" x1="871" x2="937" y1="202" y2="202"/><line style="stroke:#181818;stroke-width:0.5;" x1="871" x2="937" y1="210" y2="210"/></g><!--class PreferredSizeWidget--><g id="elem_PreferredSizeWidget"><rect fill="#F1F1F1" height="48" id="PreferredSizeWidget" rx="2.5" ry="2.5" style="stroke:#181818;stroke-width:0.5;" width="173" x="473.5" y="170"/><ellipse cx="488.5" cy="186" fill="#ADD1B2" rx="11" ry="11" style="stroke:#181818;stroke-width:1.0;"/><path d="M491.4688,191.6406 Q490.8906,191.9375 490.25,192.0781 Q489.6094,192.2344 488.9063,192.2344 Q486.4063,192.2344 485.0781,190.5938 Q483.7656,188.9375 483.7656,185.8125 Q483.7656,182.6875 485.0781,181.0313 Q486.4063,179.375 488.9063,179.375 Q489.6094,179.375 490.25,179.5313 Q490.9063,179.6875 491.4688,179.9844 L491.4688,182.7031 Q490.8438,182.125 490.25,181.8594 Q489.6563,181.5781 489.0313,181.5781 Q487.6875,181.5781 487,182.6563 Q486.3125,183.7188 486.3125,185.8125 Q486.3125,187.9063 487,188.9844 Q487.6875,190.0469 489.0313,190.0469 Q489.6563,190.0469 490.25,189.7813 Q490.8438,189.5 491.4688,188.9219 L491.4688,191.6406 Z " fill="#000000"/><text fill="#000000" font-family="sans-serif" font-size="14" lengthAdjust="spacing" textLength="141" x="502.5" y="190.8467">PreferredSizeWidget</text><line style="stroke:#181818;stroke-width:0.5;" x1="474.5" x2="645.5" y1="202" y2="202"/><line style="stroke:#181818;stroke-width:0.5;" x1="474.5" x2="645.5" y1="210" y2="210"/></g><!--class Size--><g id="elem_Size"><rect fill="#F1F1F1" height="48" id="Size" rx="2.5" ry="2.5" style="stroke:#181818;stroke-width:0.5;" width="61" x="758.5" y="746"/><ellipse cx="773.5" cy="762" fill="#ADD1B2" rx="11" ry="11" style="stroke:#181818;stroke-width:1.0;"/><path d="M776.4688,767.6406 Q775.8906,767.9375 775.25,768.0781 Q774.6094,768.2344 773.9063,768.2344 Q771.4063,768.2344 770.0781,766.5938 Q768.7656,764.9375 768.7656,761.8125 Q768.7656,758.6875 770.0781,757.0313 Q771.4063,755.375 773.9063,755.375 Q774.6094,755.375 775.25,755.5313 Q775.9063,755.6875 776.4688,755.9844 L776.4688,758.7031 Q775.8438,758.125 775.25,757.8594 Q774.6563,757.5781 774.0313,757.5781 Q772.6875,757.5781 772,758.6563 Q771.3125,759.7188 771.3125,761.8125 Q771.3125,763.9063 772,764.9844 Q772.6875,766.0469 774.0313,766.0469 Q774.6563,766.0469 775.25,765.7813 Q775.8438,765.5 776.4688,764.9219 L776.4688,767.6406 Z " fill="#000000"/><text fill="#000000" font-family="sans-serif" font-size="14" lengthAdjust="spacing" textLength="29" x="787.5" y="766.8467">Size</text><line style="stroke:#181818;stroke-width:0.5;" x1="759.5" x2="818.5" y1="778" y2="778"/><line style="stroke:#181818;stroke-width:0.5;" x1="759.5" x2="818.5" y1="786" y2="786"/></g><!--reverse link StatelessWidget to MyApp--><g id="link_StatelessWidget_MyApp"><path codeLine="7" d="M1135.0545,204.6861 C1279.1945,221.0961 1578.65,261.14 1668,322 C1726.79,362.04 1764.37,439.83 1781.73,483.26 " fill="none" id="StatelessWidget-backto-MyApp" style="stroke:#181818;stroke-width:1.0;"/><polygon fill="none" points="1117.17,202.65,1134.3758,210.6476,1135.7332,198.7246,1117.17,202.65" style="stroke:#181818;stroke-width:1.0;"/></g><!--reverse link StatefulWidget to Register--><g id="link_StatefulWidget_Register"><path codeLine="13" d="M784.8059,235.0322 C796.8759,263.5022 814.55,293.66 853,314 C875.89,326.11 1294.91,312.52 1319,322 C1403.17,355.12 1475.29,437.63 1510.33,483.14 " fill="none" id="StatefulWidget-backto-Register" style="stroke:#181818;stroke-width:1.0;"/><polygon fill="none" points="777.78,218.46,779.2818,237.3741,790.3299,232.6902,777.78,218.46" style="stroke:#181818;stroke-width:1.0;"/></g><!--reverse link TopBarHome to Size--><g id="link_TopBarHome_Size"><path codeLine="21" d="M1188.3798,573.6867 C1167.1598,602.5367 1144.02,628.52 1110,652 C1015.29,717.36 879.78,750.85 819.7,763.24 " fill="none" id="TopBarHome-backto-Size" style="stroke:#181818;stroke-width:1.0;"/><polygon fill="none" points="1195.49,564.02,1188.7127,566.4833,1188.3798,573.6867,1195.1572,571.2234,1195.49,564.02" style="stroke:#181818;stroke-width:1.0;"/></g><!--reverse link StatelessWidget to TopBarHome--><g id="link_StatelessWidget_TopBarHome"><path codeLine="22" d="M1067.1495,233.8804 C1096.7995,285.9304 1160.15,397.14 1199.82,466.79 " fill="none" id="StatelessWidget-backto-TopBarHome" style="stroke:#181818;stroke-width:1.0;"/><polygon fill="none" points="1058.24,218.24,1061.936,236.8502,1072.3629,230.9106,1058.24,218.24" style="stroke:#181818;stroke-width:1.0;"/></g><!--reverse link PreferredSizeWidget to TopBarHome--><g id="link_PreferredSizeWidget_TopBarHome"><path codeLine="23" d="M586.9079,232.619 C608.3879,261.309 638.57,294.33 687,314 C708.78,322.85 1089.62,310.28 1110,322 C1164.25,353.19 1196.39,420.59 1212.87,466.75 " fill="none" id="PreferredSizeWidget-backto-TopBarHome" style="stroke:#181818;stroke-width:1.0;"/><polygon fill="none" points="576.12,218.21,582.1049,236.215,591.711,229.0231,576.12,218.21" style="stroke:#181818;stroke-width:1.0;"/></g><!--reverse link TopBarLogin to Size--><g id="link_TopBarLogin_Size"><path codeLine="31" d="M970.6911,573.3096 C948.5811,599.5696 928.04,623.36 902,652 C871.79,685.22 835.52,722.31 812.36,745.64 " fill="none" id="TopBarLogin-backto-Size" style="stroke:#181818;stroke-width:1.0;"/><polygon fill="none" points="978.42,564.13,971.4957,566.1435,970.6911,573.3096,977.6154,571.2961,978.42,564.13" style="stroke:#181818;stroke-width:1.0;"/></g><!--reverse link StatelessWidget to TopBarLogin--><g id="link_StatelessWidget_TopBarLogin"><path codeLine="32" d="M1041.5238,236.176 C1037.1238,288.226 1027.92,397.14 1022.03,466.79 " fill="none" id="StatelessWidget-backto-TopBarLogin" style="stroke:#181818;stroke-width:1.0;"/><polygon fill="none" points="1043.04,218.24,1035.5451,235.6706,1047.5025,236.6814,1043.04,218.24" style="stroke:#181818;stroke-width:1.0;"/></g><!--reverse link PreferredSizeWidget to TopBarLogin--><g id="link_PreferredSizeWidget_TopBarLogin"><path codeLine="33" d="M587.0234,232.4373 C608.5634,260.9773 638.75,293.88 687,314 C709.06,323.2 881.41,309.86 902,322 C955.78,353.71 987.64,420.98 1003.98,466.97 " fill="none" id="PreferredSizeWidget-backto-TopBarLogin" style="stroke:#181818;stroke-width:1.0;"/><polygon fill="none" points="576.18,218.07,582.2343,236.0518,591.8125,228.8228,576.18,218.07" style="stroke:#181818;stroke-width:1.0;"/></g><!--reverse link TopBarInitial to Size--><g id="link_TopBarInitial_Size"><path codeLine="41" d="M611.4019,573.1786 C660.5519,627.3686 730.6,704.61 767.87,745.71 " fill="none" id="TopBarInitial-backto-Size" style="stroke:#181818;stroke-width:1.0;"/><polygon fill="none" points="603.34,564.29,604.4081,571.4216,611.4019,573.1786,610.3338,566.047,603.34,564.29" style="stroke:#181818;stroke-width:1.0;"/></g><!--reverse link StatefulWidget to TopBarInitial--><g id="link_StatefulWidget_TopBarInitial"><path codeLine="42" d="M743.946,233.3032 C709.896,285.3532 636.77,397.14 591.21,466.79 " fill="none" id="StatefulWidget-backto-TopBarInitial" style="stroke:#181818;stroke-width:1.0;"/><polygon fill="none" points="753.8,218.24,738.925,230.0185,748.9671,236.5878,753.8,218.24" style="stroke:#181818;stroke-width:1.0;"/></g><!--reverse link PreferredSizeWidget to TopBarInitial--><g id="link_PreferredSizeWidget_TopBarInitial"><path codeLine="43" d="M560,236.24 C560,288.29 560,397.14 560,466.79 " fill="none" id="PreferredSizeWidget-backto-TopBarInitial" style="stroke:#181818;stroke-width:1.0;"/><polygon fill="none" points="560,218.24,554,236.24,566,236.24,560,218.24" style="stroke:#181818;stroke-width:1.0;"/></g><!--reverse link State to _TopBarInitialState--><g id="link_State__TopBarInitialState"><path codeLine="49" d="M891.7187,235.463 C874.5787,291.893 835.99,419.02 816.54,483.07 " fill="none" id="State-backto-_TopBarInitialState" style="stroke:#181818;stroke-width:1.0;"/><polygon fill="none" points="896.95,218.24,885.9777,233.7193,897.4597,237.2068,896.95,218.24" style="stroke:#181818;stroke-width:1.0;"/></g><!--reverse link TopBarStudentHome to Size--><g id="link_TopBarStudentHome_Size"><path codeLine="59" d="M308.3731,587.3459 C341.7231,612.3359 372.45,632.46 412,652 C533.65,712.11 692.65,749.23 758.45,762.96 " fill="none" id="TopBarStudentHome-backto-Size" style="stroke:#181818;stroke-width:1.0;"/><polygon fill="none" points="298.77,580.15,301.1729,586.949,308.3731,587.3459,305.9702,580.5469,298.77,580.15" style="stroke:#181818;stroke-width:1.0;"/></g><!--reverse link StatelessWidget to TopBarStudentHome--><g id="link_StatelessWidget_TopBarStudentHome"><path codeLine="60" d="M1028.0133,234.3708 C1014.9033,262.8508 995.76,293.72 956,314 C929.07,327.73 439.82,310.17 412,322 C349.83,348.43 297.34,405.72 263.22,450.96 " fill="none" id="StatelessWidget-backto-TopBarStudentHome" style="stroke:#181818;stroke-width:1.0;"/><polygon fill="none" points="1035.54,218.02,1022.5631,231.8619,1033.4636,236.8797,1035.54,218.02" style="stroke:#181818;stroke-width:1.0;"/></g><!--reverse link PreferredSizeWidget to TopBarStudentHome--><g id="link_PreferredSizeWidget_TopBarStudentHome"><path codeLine="61" d="M517.7144,229.6859 C487.4844,254.6659 452.41,284.41 412,322 C367.19,363.68 318.63,412.67 281.69,450.8 " fill="none" id="PreferredSizeWidget-backto-TopBarStudentHome" style="stroke:#181818;stroke-width:1.0;"/><polygon fill="none" points="531.59,218.22,513.8924,225.0607,521.5363,234.3111,531.59,218.22" style="stroke:#181818;stroke-width:1.0;"/></g><!--SRC=[nLRBQiCm4BpxAuHFBINz014ARIyDj52IqXwDOcyS4LaIAnatVVnxvKT23NOSEwbximRjpkpEehK1IoHBm6WMmW8qGsOL4aezBnJC6E9hL5i8hQ8qOLnUHmmjfK_RMwrzykaHSlN6ezXbMQPSH1UNthVd-IkHMWj8gS6GqgouO2XTeMFA56wgB0lBB0WmfapXa-dNP7AGiK6L2H50kkm8CJUEjGgOLyTAPS4rtO4tn4Kve407Y5wbearpfvw66lPavKTWbGxMAe4gz4NfEuOF3jWLmp-0Q8GL84AKdt9qgPGW355bBROC8bHvUIMSSbU-8_FFv_3nGbevztq8ZDDM1Jx_RiuPo8_pJAXuFx1bz6EE_ALhhPJZ-zOcPIJdMkcFyuvBRZaJjGIp4klXN_dCrAARtfeJf9pkwu77gw-QaQmzA668lK4jHz6Lysop8VKqYUcn91OsZK3QMdCghEVAuD8LpiBDJ4RmdWDpbRffZhRk3u67RevJOrLolsOoXbSEcUlFq4NJAVf_rawNh16NKASKxmS0]--></g></svg>